<?xml version="1.0" encoding="UTF-8" standalone="no"?>
<svg
   width="172"
   height="42"
   version="1.1"
   id="svg1"
   sodipodi:docname="librewolf-wordmark-private.svg"
   inkscape:version="1.3 (0e150ed6c4, 2023-07-21)"
   xmlns:inkscape="http://www.inkscape.org/namespaces/inkscape"
   xmlns:sodipodi="http://sodipodi.sourceforge.net/DTD/sodipodi-0.dtd"
   xmlns="http://www.w3.org/2000/svg"
   xmlns:svg="http://www.w3.org/2000/svg">
  <defs
     id="defs1" />
  <sodipodi:namedview
     id="namedview1"
     pagecolor="#ffffff"
     bordercolor="#000000"
     borderopacity="0.25"
     inkscape:showpageshadow="2"
     inkscape:pageopacity="0.0"
     inkscape:pagecheckerboard="0"
     inkscape:deskcolor="#d1d1d1"
     inkscape:zoom="10.401163"
     inkscape:cx="86.096141"
     inkscape:cy="20.959195"
     inkscape:window-width="2506"
     inkscape:window-height="1038"
     inkscape:window-x="0"
     inkscape:window-y="0"
     inkscape:window-maximized="1"
     inkscape:current-layer="layer1" />
  <g
     inkscape:groupmode="layer"
     id="layer1"
     inkscape:label="Base">
    <path
       style="font-weight:bold;font-size:37.0845px;font-family:'Noto Sans';-inkscape-font-specification:'Noto Sans Bold';fill:#8000d7;stroke-width:3.09036"
       d="M 0.21471948,36.767258 V 10.288925 H 5.8144789 v 21.84277 H 16.568984 v 4.635563 z M 26.248058,16.519121 v 20.248137 h -5.52559 V 16.519121 Z M 23.503806,8.5830382 q 1.223788,0 2.113816,0.593352 0.890028,0.5562675 0.890028,2.1138168 0,1.520464 -0.890028,2.113816 -0.890028,0.593352 -2.113816,0.593352 -1.260873,0 -2.150901,-0.593352 -0.852944,-0.593352 -0.852944,-2.113816 0,-1.5575493 0.852944,-2.1138168 0.890028,-0.593352 2.150901,-0.593352 z m 14.055036,6.5639568 q 0,1.149619 -0.07417,2.262154 -0.07417,1.112535 -0.148338,1.742971 h 0.222507 q 0.815859,-1.260872 2.187985,-2.113816 1.372127,-0.890028 3.560112,-0.890028 3.411774,0 5.525591,2.670084 2.113816,2.632999 2.113816,7.787745 0,3.448858 -1.001281,5.822266 -0.964197,2.336324 -2.707169,3.523028 -1.742971,1.186704 -4.079295,1.186704 -2.22507,0 -3.523027,-0.778775 -1.260873,-0.815859 -2.076732,-1.81714 h -0.370845 l -0.927113,2.22507 H 32.033251 V 8.5830382 h 5.525591 z m 3.968041,5.414336 q -1.446295,0 -2.299239,0.593352 -0.852943,0.593352 -1.260873,1.817141 -0.370845,1.186704 -0.407929,3.003844 v 0.593352 q 0,2.929676 0.852943,4.524309 0.890028,1.557549 3.189267,1.557549 1.705887,0 2.707169,-1.557549 1.001281,-1.594633 1.001281,-4.561393 0,-2.96676 -1.038366,-4.45014 -1.001281,-1.520465 -2.744253,-1.520465 z m 25.291609,-4.413055 q 0.40793,0 0.964197,0.03709 0.556267,0.03708 0.890028,0.111253 l -0.40793,5.19183 q -0.259591,-0.07417 -0.778774,-0.111254 -0.482098,-0.07417 -0.852943,-0.07417 -1.075451,0 -2.076732,0.296676 -1.001282,0.259592 -1.817141,0.852944 -0.778774,0.593352 -1.260873,1.594633 -0.445014,0.964197 -0.445014,2.410493 V 36.767258 H 55.50772 V 16.519121 h 4.190548 l 0.815859,3.411774 h 0.259592 q 0.593352,-1.038366 1.48338,-1.891309 0.890028,-0.852944 2.039647,-1.372127 1.186704,-0.519183 2.521746,-0.519183 z m 13.127913,0 q 2.818422,0 4.820985,1.075451 2.039648,1.07545 3.152183,3.115097 1.112535,2.039648 1.112535,5.006408 v 2.670084 H 75.978364 q 0.07417,2.336323 1.372126,3.671365 1.335042,1.335042 3.671366,1.335042 1.965478,0 3.560112,-0.370845 1.594633,-0.407929 3.30052,-1.223788 v 4.264717 q -1.48338,0.74169 -3.152182,1.075451 -1.631718,0.370845 -3.968042,0.370845 -3.040929,0 -5.377252,-1.112535 -2.336324,-1.14962 -3.671366,-3.448859 -1.335042,-2.299239 -1.335042,-5.785182 0,-3.560112 1.186704,-5.896435 1.223789,-2.373408 3.37469,-3.560112 2.150901,-1.186704 5.006407,-1.186704 z m 0.03709,3.930957 q -1.594634,0 -2.670084,1.038366 -1.038366,1.038366 -1.223789,3.226351 h 7.750661 q 0,-1.223788 -0.445014,-2.187985 -0.40793,-0.964197 -1.260873,-1.520465 -0.852944,-0.556267 -2.150901,-0.556267 z m 27.88751,9.604885 q -0.14834,-0.630436 -0.44501,-1.854225 -0.25959,-1.260873 -0.59336,-2.670084 -0.33376,-1.446295 -0.63043,-2.632999 -0.29668,-1.223789 -0.40793,-1.780056 h -0.14834 q -0.11125,0.556267 -0.40793,1.780056 -0.25959,1.186704 -0.59335,2.632999 -0.33376,1.409211 -0.63044,2.670084 -0.29667,1.260873 -0.44501,1.928394 l -1.63172,7.008971 H 96.003961 L 90.255864,16.519121 h 5.488505 l 2.336324,8.974449 q 0.259591,0.927112 0.445014,2.22507 0.222507,1.297957 0.407929,2.521746 0.185423,1.186704 0.259592,1.891309 h 0.148338 q 0.03708,-0.519183 0.148338,-1.372126 0.111253,-0.890028 0.259591,-1.817141 0.185423,-0.927112 0.296675,-1.668802 0.14834,-0.778775 0.22251,-1.038366 l 2.48466,-9.716139 h 6.08186 l 2.37341,9.716139 q 0.14833,0.519183 0.33376,1.668802 0.2225,1.14962 0.37084,2.336324 0.18542,1.186704 0.18542,1.891309 h 0.14834 q 0.0742,-0.630436 0.25959,-1.81714 0.18543,-1.223789 0.40793,-2.558831 0.25959,-1.335042 0.51919,-2.262154 l 2.41049,-8.974449 h 5.41434 l -5.82227,20.248137 h -6.00769 z m 35.04488,-3.078013 q 0,2.521746 -0.7046,4.487224 -0.66752,1.965479 -1.96548,3.337605 -1.26087,1.335042 -3.07801,2.039648 -1.81714,0.667521 -4.11638,0.667521 -2.11382,0 -3.93096,-0.667521 -1.78006,-0.704606 -3.07801,-2.039648 -1.29796,-1.372126 -2.03965,-3.337605 -0.70461,-1.965478 -0.70461,-4.487224 0,-3.37469 1.18671,-5.673929 1.1867,-2.336323 3.41177,-3.560111 2.22507,-1.223789 5.266,-1.223789 2.85551,0 5.04349,1.223789 2.18799,1.223788 3.44886,3.560111 1.26087,2.299239 1.26087,5.673929 z m -13.98085,0 q 0,2.002563 0.40793,3.374689 0.44501,1.335042 1.37212,2.039648 0.92712,0.667521 2.4105,0.667521 1.48338,0 2.3734,-0.667521 0.92712,-0.704606 1.33505,-2.039648 0.44501,-1.372126 0.44501,-3.374689 0,-2.002563 -0.44501,-3.337605 -0.40793,-1.335042 -1.33505,-2.002563 -0.92711,-0.667521 -2.41049,-0.667521 -2.18798,0 -3.18927,1.520464 -0.96419,1.48338 -0.96419,4.487225 z m 24.06782,10.161153 h -5.52559 V 8.5830382 h 5.52559 z m 16.98472,-16.094673 h -4.78391 v 16.094673 h -5.52559 V 20.672585 h -3.04092 v -2.670084 l 3.04092,-1.48338 v -1.48338 q 0,-2.595915 0.85295,-4.005126 0.89003,-1.4462953 2.48466,-2.0396473 1.63172,-0.593352 3.8197,-0.593352 1.63172,0 2.92968,0.2595915 1.33504,0.2595915 2.1509,0.593352 l -1.40921,4.0422108 q -0.63044,-0.185423 -1.37213,-0.333761 -0.74169,-0.185422 -1.70589,-0.185422 -1.14961,0 -1.70588,0.704605 -0.51919,0.704606 -0.51919,1.780056 v 1.260873 h 4.78391 z"
       id="text1"
       aria-label="Librewolf"
       inkscape:label="Path" />
  </g>
</svg>
