<?xml version="1.0" encoding="UTF-8" standalone="no"?>
<!-- Created with Inkscape (http://www.inkscape.org/) -->

<svg
   width="67.733337mm"
   height="67.733337mm"
   viewBox="0 0 67.733337 67.733337"
   version="1.1"
   id="svg8"
   fill="context-fill"
   inkscape:version="1.3 (0e150ed6c4, 2023-07-21)"
   sodipodi:docname="wolflogo_fill.svg"
   xmlns:inkscape="http://www.inkscape.org/namespaces/inkscape"
   xmlns:sodipodi="http://sodipodi.sourceforge.net/DTD/sodipodi-0.dtd"
   xmlns="http://www.w3.org/2000/svg"
   xmlns:svg="http://www.w3.org/2000/svg"
   xmlns:rdf="http://www.w3.org/1999/02/22-rdf-syntax-ns#"
   xmlns:cc="http://creativecommons.org/ns#"
   xmlns:dc="http://purl.org/dc/elements/1.1/">
  <defs
     id="defs2" />
  <sodipodi:namedview
     id="path875"
     pagecolor="#ffffff"
     bordercolor="#666666"
     borderopacity="1.0"
     inkscape:pageopacity="0.0"
     inkscape:pageshadow="2"
     inkscape:zoom="1.979899"
     inkscape:cx="92.428957"
     inkscape:cy="155.56349"
     inkscape:document-units="mm"
     inkscape:current-layer="layer1"
     showgrid="false"
     inkscape:window-width="2506"
     inkscape:window-height="1038"
     inkscape:window-x="0"
     inkscape:window-y="0"
     inkscape:window-maximized="1"
     inkscape:showpageshadow="false"
     units="px"
     fit-margin-top="0"
     fit-margin-left="0"
     fit-margin-right="0"
     fit-margin-bottom="0"
     inkscape:pagecheckerboard="0"
     inkscape:deskcolor="#d1d1d1" />
  <metadata
     id="metadata5">
    <rdf:RDF>
      <cc:Work
         rdf:about="">
        <dc:format>image/svg+xml</dc:format>
        <dc:type
           rdf:resource="http://purl.org/dc/dcmitype/StillImage" />
      </cc:Work>
    </rdf:RDF>
  </metadata>
  <g
     inkscape:groupmode="layer"
     id="layer1"
     inkscape:label="Base">
    <path
       id="path1"
       style="display:inline;fill-opacity:1"
       d="m -7.8227376,33.866329 c 0,-41.6731816 0,-41.6731816 0,0 z M 33.956632,0.58806137 c 8.817679,0 16.644016,3.15931503 22.986508,9.27879973 3.055408,2.9479869 5.104775,5.7441059 6.85926,9.3601849 2.373254,4.891364 3.333936,9.14593 3.333936,14.760095 0,7.39066 -2.13392,13.836069 -6.566759,19.831899 -1.317289,1.781738 -3.890712,4.488472 -5.598307,5.888272 -4.683996,3.839664 -10.65442,6.437473 -16.578724,7.214084 -2.046977,0.268336 -6.882817,0.301633 -8.762457,0.06042 v 6.4e-4 C 23.792462,66.233382 18.209008,63.905718 13.336243,60.191222 11.74696,58.979726 8.7649758,55.97895 7.4632359,54.280703 3.8179765,49.525088 1.5507829,44.127468 0.80300486,38.42307 0.48287115,35.980956 0.48489653,31.491376 0.80681941,29.259372 2.4164139,18.101526 9.4380742,8.5312439 19.521468,3.7522246 24.211554,1.5293502 28.504984,0.58807368 33.956631,0.58807368 Z M 33.847269,5.6286989 C 28.723357,5.6237779 24.230175,6.7976807 19.783462,9.3047407 15.735406,11.587036 11.550276,15.776988 9.2583387,19.841944 7.570351,22.835755 6.3352589,26.388598 5.8531893,29.635169 c -0.3160742,2.128667 -0.3226488,6.355471 -0.012724,8.393647 0.6202581,4.07897 2.1674659,8.11031 4.4104787,11.491657 1.224856,1.846475 1.186423,1.826381 2.266921,1.208174 1.932846,-1.105857 2.437425,-1.641165 3.490358,-3.704012 1.231273,-2.412236 2.54763,-4.520207 3.737079,-5.984288 1.373025,-1.690065 1.561601,-1.990691 2.250387,-3.586375 0.346578,-0.802894 0.968373,-1.982237 1.381773,-2.620464 l 0.751613,-1.160491 -0.972264,-0.955735 c -1.291597,-1.26949 -2.366204,-2.709368 -2.568328,-3.441384 -0.206431,-0.747632 0.03758,-1.164701 1.007872,-1.725159 0.98115,-0.566735 1.682629,-0.729445 4.304923,-0.998963 1.276808,-0.131234 2.662698,-0.371428 3.099289,-0.537326 0.434401,-0.165059 1.732394,-0.871617 2.884364,-1.569992 3.325988,-2.016346 3.607464,-2.120656 5.601486,-2.077428 1.684174,0.03655 1.687348,0.0358 2.685967,-0.567842 2.092686,-1.264986 5.098219,-3.54733 9.053055,-6.875164 0.758386,-0.63814 1.488888,-1.139326 1.623408,-1.113424 0.55941,0.107796 1.586875,2.628978 1.742953,4.276948 0.09466,0.999478 -0.099,1.987982 -0.691841,3.534866 -0.161762,0.422076 -0.235928,0.824968 -0.16533,0.895317 0.16949,0.168898 0.751614,-0.557975 0.751614,-0.938557 0,-0.485252 0.320895,-0.540908 0.757972,-0.130988 0.317757,0.298004 0.591993,0.383439 1.231066,0.383439 0.697787,0 0.870338,0.06461 1.142682,0.427945 0.462146,0.616632 0.570537,2.297628 0.216836,3.362546 -0.3441,1.035976 -1.384132,2.230232 -2.327965,2.67388 -0.844537,0.396986 -2.554156,2.066648 -3.354278,3.275425 -0.306282,0.462719 -0.880635,1.427303 -1.276216,2.143569 -0.395592,0.716253 -1.059193,1.798484 -1.474612,2.404902 -0.817416,1.193248 -1.517529,2.857755 -2.193157,5.214865 -0.396905,1.384691 -0.429984,1.745131 -0.446391,4.833347 -0.01985,3.730529 -0.213,4.646124 -1.221529,5.79479 -1.14659,1.305889 -2.290888,4.17361 -2.387101,5.981742 -0.06072,1.141308 -0.236586,2.253748 -0.486451,3.077671 -0.110035,0.362803 0.09562,0.358421 1.319455,-0.02732 3.566485,-1.124266 6.472923,-2.634934 9.278795,-4.823158 1.49198,-1.163568 4.070682,-3.767161 5.151918,-5.201526 2.932636,-3.890372 4.927882,-8.763784 5.515006,-13.469256 C 62.215059,35.234676 62.051128,30.440164 61.61942,28.35897 60.475784,22.845759 58.011448,18.189126 54.129993,14.204238 51.710113,11.719869 49.50725,10.08231 46.673003,8.661247 42.372388,6.5049553 38.687628,5.6336332 33.847259,5.6287234 Z m 5.265104,18.4539411 -2.418895,0.338932 -1.503863,1.925448 2.419534,-0.339558 z"
       sodipodi:nodetypes="ssssssscsccsssccscscssscscscccsssscccscsssssssssscsscssscscsssscccccc"
       inkscape:label="Path" />
  </g>
</svg>
