<?xml version="1.0" encoding="UTF-8" standalone="no"?>
<!-- Created with Inkscape (http://www.inkscape.org/) -->

<svg
   width="67.733337mm"
   height="67.733337mm"
   viewBox="0 0 67.733337 67.733337"
   version="1.1"
   id="svg8"
   fill="context-fill"
   inkscape:version="1.3 (0e150ed6c4, 2023-07-21)"
   sodipodi:docname="wolflogo_stroke.svg"
   xmlns:inkscape="http://www.inkscape.org/namespaces/inkscape"
   xmlns:sodipodi="http://sodipodi.sourceforge.net/DTD/sodipodi-0.dtd"
   xmlns="http://www.w3.org/2000/svg"
   xmlns:svg="http://www.w3.org/2000/svg"
   xmlns:rdf="http://www.w3.org/1999/02/22-rdf-syntax-ns#"
   xmlns:cc="http://creativecommons.org/ns#"
   xmlns:dc="http://purl.org/dc/elements/1.1/">
  <defs
     id="defs2" />
  <sodipodi:namedview
     id="path875"
     pagecolor="#ffffff"
     bordercolor="#666666"
     borderopacity="1.0"
     inkscape:pageopacity="0.0"
     inkscape:pageshadow="2"
     inkscape:zoom="1.979899"
     inkscape:cx="92.428957"
     inkscape:cy="155.56349"
     inkscape:document-units="mm"
     inkscape:current-layer="layer1"
     showgrid="false"
     inkscape:window-width="2506"
     inkscape:window-height="1038"
     inkscape:window-x="0"
     inkscape:window-y="0"
     inkscape:window-maximized="1"
     inkscape:showpageshadow="false"
     units="px"
     fit-margin-top="0"
     fit-margin-left="0"
     fit-margin-right="0"
     fit-margin-bottom="0"
     inkscape:pagecheckerboard="0"
     inkscape:deskcolor="#d1d1d1" />
  <metadata
     id="metadata5">
    <rdf:RDF>
      <cc:Work
         rdf:about="">
        <dc:format>image/svg+xml</dc:format>
        <dc:type
           rdf:resource="http://purl.org/dc/dcmitype/StillImage" />
      </cc:Work>
    </rdf:RDF>
  </metadata>
  <g
     inkscape:groupmode="layer"
     id="layer1"
     inkscape:label="Base">
    <path
       style="display:inline;fill-opacity:1"
       d="m 33.497446,0.22144172 -0.0039,0.0466895 C 28.238259,0.32517702 23.948374,1.2489105 19.36413,3.4216213 9.1689711,8.2536114 2.071838,17.929484 0.44513531,29.205925 c -0.33407685,2.316271 -0.3349624,6.753272 -0.005835,9.263984 0.75641819,5.770309 3.05215419,11.229955 6.73302199,16.032024 1.3476701,1.758167 4.2837357,4.715166 5.9431897,5.980154 4.919579,3.750182 10.563847,6.10578 16.467793,6.863364 l 0.56222,0.07199 v -0.07587 c 2.165955,0.204228 6.294867,0.205547 8.293231,-0.05642 6.000018,-0.786537 12.024688,-3.409054 16.765439,-7.295242 1.754543,-1.438286 4.306097,-4.122789 5.659162,-5.952918 4.471305,-6.047858 6.639644,-12.593939 6.639644,-20.051216 0,-5.648761 -0.981044,-9.992695 -3.371376,-14.919256 C 62.361611,15.418422 60.274705,12.572411 57.198228,9.6040957 50.795151,3.4261563 42.858302,0.22144172 33.956559,0.22144172 Z m 0.459113,0.99604368 c 8.663826,0 16.317398,3.0899196 22.549107,9.1025176 3.010157,2.904325 5.006008,5.626827 6.731077,9.182276 2.337393,4.817456 3.270214,8.948353 3.270214,14.483488 0,7.26555 -2.083869,13.561522 -6.443158,19.45787 -1.271087,1.719246 -3.844727,4.425651 -5.491858,5.775886 -4.59017,3.762751 -10.459881,6.316818 -16.261582,7.077357 -1.943914,0.254826 -6.841105,0.286103 -8.600604,0.06031 C 23.984649,65.622553 18.50597,63.33972 13.718585,59.69031 12.212051,58.541892 9.2076599,55.5218 7.9621527,53.896914 4.3813524,49.225394 2.1607808,43.932907 1.4275612,38.339568 1.1189537,35.985381 1.1222856,31.47801 1.4295065,29.347939 3.0092537,18.396998 9.9002939,9.0086196 19.792117,4.320395 24.406518,2.1333919 28.583811,1.2174854 33.956559,1.2174854 Z M 33.847617,5.2425136 C 28.667637,5.2375435 24.08989,6.4329877 19.593686,8.9679506 15.46242,11.29716 11.259582,15.504806 8.9212338,19.652076 c -1.7130522,3.038266 -2.9586301,6.623613 -3.4491903,9.927365 -0.3287436,2.213991 -0.3378574,6.37491 -0.013618,8.507225 0.6289768,4.136305 2.1939096,8.215095 4.4705244,11.647097 0.6091381,0.918277 0.8418291,1.408421 1.3637241,1.68666 0.260948,0.139121 0.600288,0.12753 0.842357,0.04086 0.24207,-0.08668 0.44702,-0.21495 0.713961,-0.367681 1.9529,-1.11733 2.610717,-1.813693 3.672912,-3.894686 1.214467,-2.379312 2.514515,-4.456877 3.665128,-5.873156 1.371746,-1.688489 1.622931,-2.089635 2.313079,-3.688474 0.329635,-0.763644 0.953036,-1.944806 1.336488,-2.536799 l 0.968808,-1.497958 -1.256727,-1.235326 c -0.625356,-0.614652 -1.2005,-1.274212 -1.63608,-1.857856 -0.435578,-0.583643 -0.729084,-1.121115 -0.791777,-1.34816 -0.08308,-0.300909 -0.06922,-0.406279 0.01168,-0.544712 0.0809,-0.138433 0.308098,-0.347507 0.760651,-0.60891 0.92399,-0.533717 1.490548,-0.664553 4.091171,-0.931845 0.648388,-0.06665 1.319731,-0.159719 1.890927,-0.258738 0.571197,-0.09901 1.014533,-0.189003 1.320926,-0.305427 0.282945,-0.10751 0.701089,-0.323234 1.229491,-0.610855 0.528402,-0.287622 1.144622,-0.641905 1.725568,-0.994098 1.654343,-1.002929 2.542492,-1.517902 3.202125,-1.762532 0.659633,-0.244629 1.122986,-0.254776 2.106865,-0.233447 0.838837,0.0182 1.282465,0.03552 1.70806,-0.05447 0.425594,-0.08998 0.739817,-0.28292 1.237274,-0.58362 2.130699,-1.287964 5.130708,-3.570073 9.079171,-6.892543 0.366563,-0.308444 0.729428,-0.584108 1.003825,-0.772324 0.09544,-0.06546 0.158028,-0.103471 0.225666,-0.143959 0.04044,0.04857 0.07958,0.09273 0.132287,0.175085 0.15139,0.236575 0.327868,0.590891 0.492186,0.994099 0.328636,0.806415 0.612529,1.8217 0.682835,2.564035 0.08537,0.90136 -0.07945,1.787102 -0.657544,3.295503 -0.09041,0.235899 -0.157207,0.462959 -0.194541,0.665326 -0.01866,0.101184 -0.032,0.194853 -0.03113,0.299591 8.63e-4,0.104739 -0.04368,0.241108 0.17314,0.457169 0.134844,0.134373 0.360003,0.185029 0.501914,0.165358 0.141911,-0.01967 0.230474,-0.07125 0.307372,-0.120613 0.153795,-0.09873 0.263459,-0.215656 0.369626,-0.348228 0.164872,-0.205876 0.262535,-0.470484 0.326827,-0.762596 0.01274,0.01034 -0.004,-0.0012 0.0098,0.01168 0.386145,0.362141 0.885116,0.517476 1.566045,0.517476 0.332142,0 0.499048,0.02399 0.55444,0.04474 0.05539,0.02075 0.0729,0.02902 0.186758,0.180923 0.111114,0.148257 0.27628,0.668481 0.313208,1.241163 0.03694,0.572683 -0.0265,1.212071 -0.17314,1.653589 -0.284202,0.855643 -1.300115,2.014057 -2.056286,2.369494 -0.546776,0.25702 -1.173767,0.786345 -1.824782,1.422086 -0.651016,0.635742 -1.289396,1.365305 -1.719733,2.015432 -0.322728,0.487565 -0.890579,1.442744 -1.291744,2.169118 -0.382713,0.692937 -1.048033,1.775766 -1.44543,2.355878 -0.861286,1.257288 -1.569874,2.962485 -2.250826,5.338171 -0.399622,1.394172 -0.44859,1.869747 -0.464949,4.949093 -0.0099,1.849505 -0.06646,2.984361 -0.227613,3.748781 -0.161154,0.76442 -0.396318,1.161782 -0.865702,1.696387 -1.272165,1.44891 -2.394354,4.277985 -2.499836,6.260291 -0.05867,1.102991 -0.231423,2.183646 -0.463004,2.947277 -0.03982,0.131309 -0.116255,0.306249 0.0214,0.573893 0.06882,0.133821 0.207727,0.243543 0.324881,0.287918 0.117154,0.04437 0.212915,0.04848 0.299592,0.04669 0.346703,-0.0072 0.677081,-0.120806 1.29369,-0.315155 3.600381,-1.13495 6.559586,-2.673067 9.398217,-4.886839 1.550726,-1.209383 4.091697,-3.772669 5.223392,-5.273974 2.976013,-3.947913 4.992396,-8.872261 5.589129,-13.654747 0.29528,-2.366499 0.138702,-7.070524 -0.3171,-9.267877 C 60.840843,22.703812 58.334471,17.967111 54.406581,13.934551 51.967193,11.430156 49.712459,9.7540476 46.84482,8.3162424 42.737138,6.2566854 39.073816,5.413275 34.557687,5.3183841 l 0.03113,-0.07587 z m 0,0.9960438 c 4.761704,0.00483 8.321945,0.8459657 12.551708,2.9667318 2.778423,1.3930738 4.912075,2.9790898 7.293296,5.4237698 3.8043,3.905676 6.206775,8.446494 7.328313,13.853178 0.404197,1.948564 0.573483,6.794688 0.305428,8.942994 -0.572868,4.591215 -2.530484,9.376084 -5.396534,13.178125 -1.022218,1.356073 -3.619101,3.978672 -5.040526,5.087216 -2.750905,2.145358 -5.580647,3.616798 -9.085008,4.72148 -0.362176,0.114154 -0.436374,0.120184 -0.610855,0.161467 0.20192,-0.805951 0.375217,-1.706384 0.427988,-2.698265 0.08619,-1.619649 1.242775,-4.502741 2.254716,-5.655272 0.535154,-0.609516 0.900253,-1.241182 1.091368,-2.14772 0.191116,-0.906538 0.239081,-2.084841 0.249011,-3.951102 0.01633,-3.072645 0.035,-3.314432 0.426042,-4.678683 0.664957,-2.319878 1.349517,-3.93049 2.116593,-5.050253 0.430153,-0.627925 1.088726,-1.701737 1.494066,-2.435638 0.386867,-0.700487 0.963479,-1.66682 1.25089,-2.10103 0.36662,-0.553866 0.975551,-1.258325 1.585499,-1.853964 0.609949,-0.595638 1.256066,-1.094987 1.550483,-1.233382 1.124025,-0.528347 2.178323,-1.748896 2.579598,-2.957004 0.205656,-0.619187 0.265831,-1.347783 0.221775,-2.030996 -0.04405,-0.683213 -0.162438,-1.30827 -0.51164,-1.774203 -0.15741,-0.210002 -0.362085,-0.413623 -0.6342,-0.515531 -0.272115,-0.101907 -0.53978,-0.108942 -0.902665,-0.108942 -0.592157,0 -0.638301,-0.01556 -0.885155,-0.247065 -0.270235,-0.253445 -0.546712,-0.469547 -0.966864,-0.396861 -0.0163,0.0028 -0.02273,0.02494 -0.0389,0.02918 0.275042,-0.946932 0.585033,-1.888314 0.511639,-2.66325 -0.08515,-0.899116 -0.391642,-1.959726 -0.752869,-2.846117 -0.180614,-0.443195 -0.373769,-0.839796 -0.575838,-1.155566 -0.101034,-0.157885 -0.201697,-0.296241 -0.32099,-0.416315 -0.119294,-0.120077 -0.255465,-0.239163 -0.488296,-0.284028 -0.204245,-0.03932 -0.270164,0.0095 -0.340445,0.03502 -0.07028,0.02553 -0.129893,0.05386 -0.192593,0.08755 -0.125402,0.06737 -0.262385,0.153764 -0.418261,0.260684 -0.311751,0.213838 -0.690874,0.505458 -1.079695,0.832631 -3.929909,3.306857 -6.916558,5.57106 -8.954668,6.803056 -0.497211,0.300553 -0.683924,0.409461 -0.927953,0.461059 -0.244031,0.0516 -0.639829,0.05128 -1.478503,0.03306 -1.002251,-0.02173 -1.671204,-0.003 -2.476491,0.295701 -0.80529,0.298646 -1.714838,0.840744 -3.373321,1.846183 -0.566466,0.343417 -1.169721,0.689544 -1.682769,0.968807 -0.513049,0.279264 -0.959139,0.497543 -1.108877,0.554439 -0.12847,0.04881 -0.592397,0.160255 -1.138058,0.254846 -0.54566,0.09459 -1.19947,0.186886 -1.822838,0.250957 -2.623209,0.269613 -3.455543,0.463031 -4.486087,1.058296 -0.5139,0.296839 -0.89166,0.57575 -1.122495,0.970755 -0.230834,0.395004 -0.233416,0.867433 -0.110887,1.311197 0.138632,0.502075 0.479749,1.047037 0.9513,1.678879 0.47155,0.631843 1.076109,1.322819 1.737241,1.972634 l 0.678943,0.667271 -0.529149,0.815122 c -0.440075,0.679408 -1.053526,1.846914 -1.414304,2.682703 -0.681973,1.5799 -0.807626,1.776762 -2.171064,3.455027 -1.218871,1.500295 -2.541575,3.622174 -3.779908,6.048242 -1.035337,2.028374 -1.382446,2.398576 -3.279941,3.484208 -0.271169,0.155149 -0.464818,0.260969 -0.556383,0.293755 -0.09157,0.03278 -0.02045,0.02632 -0.03697,0.01751 -0.03302,-0.0176 -0.391009,-0.436999 -1.00188,-1.357889 C 8.5679765,45.879285 7.0494275,41.926221 6.442797,37.936871 6.1496398,36.008965 6.1555115,31.751841 6.4564147,29.725346 6.9261783,26.561652 8.1393179,23.067978 9.7888813,20.142317 12.016268,16.191847 16.15112,12.052916 20.083927,9.8355981 c 4.362028,-2.459315 8.7364,-3.6018689 13.76369,-3.5970407 z m 6.394523,17.2187166 -1.219764,0.171195 -2.60878,0.365735 -2.379221,3.046493 3.828543,-0.53693 z m -2.299461,1.328707 -0.61669,0.787886 -0.992153,0.138123 0.616691,-0.787886 z"
       id="path60"
       sodipodi:nodetypes="ccccssccccsscsscscssssscscsssccscscscssscscscccssssssssssccssscssssssssssccsscssssscsscsscsssccscscssccccssssscsccsscsscsscsscsssccssssccsscssccssssssssscccccssssssscscccccccccccc"
       inkscape:label="Path" />
  </g>
</svg>
