<?xml version="1.0" encoding="UTF-8" standalone="no"?>
<svg
   height="2500"
   viewBox="78.7 70 353.3 367.3"
   width="2309"
   version="1.1"
   id="svg9"
   fill="context-fill"
   sodipodi:docname="wolfmenu.svg"
   inkscape:version="1.3 (0e150ed6c4, 2023-07-21)"
   xml:space="preserve"
   xmlns:inkscape="http://www.inkscape.org/namespaces/inkscape"
   xmlns:sodipodi="http://sodipodi.sourceforge.net/DTD/sodipodi-0.dtd"
   xmlns="http://www.w3.org/2000/svg"
   xmlns:svg="http://www.w3.org/2000/svg"
   xmlns:rdf="http://www.w3.org/1999/02/22-rdf-syntax-ns#"
   xmlns:cc="http://creativecommons.org/ns#"
   xmlns:dc="http://purl.org/dc/elements/1.1/"><metadata
     id="metadata15"><rdf:RDF><cc:Work
         rdf:about=""><dc:format>image/svg+xml</dc:format><dc:type
           rdf:resource="http://purl.org/dc/dcmitype/StillImage" /></cc:Work></rdf:RDF></metadata><defs
     id="defs13" /><sodipodi:namedview
     pagecolor="#ffffff"
     bordercolor="#666666"
     borderopacity="1"
     objecttolerance="10"
     gridtolerance="10"
     guidetolerance="10"
     inkscape:pageopacity="0"
     inkscape:pageshadow="2"
     inkscape:window-width="1276"
     inkscape:window-height="694"
     id="namedview11"
     showgrid="false"
     inkscape:zoom="0.21220032"
     inkscape:cx="1262.9576"
     inkscape:cy="1267.6701"
     inkscape:window-x="0"
     inkscape:window-y="0"
     inkscape:window-maximized="0"
     inkscape:current-layer="layer1"
     inkscape:pagecheckerboard="0"
     inkscape:showpageshadow="2"
     inkscape:deskcolor="#d1d1d1" /><g
     inkscape:groupmode="layer"
     id="layer1"
     inkscape:label="Base"><path
       id="path875"
       style="display:inline;fill-opacity:1"
       d="M 324.09773,-342.35065 A 281.99113,281.99113 0 0 0 42.106618,-60.359598 281.99113,281.99113 0 0 0 324.09773,221.63154 281.99113,281.99113 0 0 0 606.08883,-60.359598 281.99113,281.99113 0 0 0 324.09773,-342.35065 Z m 0.71858,56.80611 c 59.66682,0 112.62554,21.37823 155.54346,62.78712 20.67514,19.94807 34.54267,38.86881 46.41473,63.33784 16.05917,33.09854 22.55984,61.887864 22.55984,99.877562 0,50.0104294 -14.43958,93.624934 -44.43546,134.197099 -8.91373,12.056369 -26.32737,30.372189 -37.88222,39.844259 -31.69531,25.98212 -72.09555,43.5608 -112.18373,48.81574 -13.85134,1.81577 -46.57414,2.04116 -59.29317,0.40884 v 0.004 C 256.03811,158.6594 218.25209,142.90881 185.27941,117.77383 174.52516,109.57596 154.34688,89.270519 145.53836,77.778938 120.87187,45.598978 105.53469,9.074579 100.47468,-29.525369 c -2.166257,-16.525123 -2.152551,-46.904891 0.0258,-62.008263 10.89169,-75.502118 58.40536,-140.265958 126.63697,-172.604288 31.73652,-15.04159 60.789,-21.40662 97.67884,-21.40662 z m -0.7444,34.10863 c -34.67212,-0.0333 -65.07197,7.91018 -95.16167,24.87478 -27.3921,15.44351 -55.71174,43.79594 -71.22066,71.30239 -11.42215,20.25832 -19.77969,44.29945 -23.04172,66.268107 -2.13879,14.403945 -2.18328,43.005837 -0.0861,56.797451 4.19712,27.6014615 14.66666,54.880355 29.84452,77.761019 8.28826,12.494593 8.02819,12.358621 15.33963,8.175383 13.07905,-7.483034 16.48911,-11.105315 23.61401,-25.064042 8.33169,-16.322955 17.24343,-30.5870148 25.29211,-40.494062 9.29087,-11.43621 10.56692,-13.47046 15.22776,-24.268027 2.34518,-5.432964 6.55271,-13.413174 9.35007,-17.732051 l 5.08597,-7.852647 -6.57905,-6.4672 c -8.73988,-8.590293 -16.01146,-18.333474 -17.37918,-23.286998 -1.39687,-5.05902 0.25427,-7.881124 6.82001,-11.673603 6.63916,-3.83494 11.38588,-4.93603 29.13024,-6.75979 8.63981,-0.88802 18.01775,-2.51327 20.97205,-3.63585 2.93946,-1.11692 11.72264,-5.898 19.5177,-10.62371 22.50608,-13.64407 24.41074,-14.34991 37.90374,-14.0574 11.39636,0.2473 11.41785,0.24197 18.17522,-3.84243 14.16064,-8.55982 34.49827,-24.00383 61.25957,-46.52237 5.13178,-4.31813 10.0749,-7.70952 10.98516,-7.53425 3.78538,0.72941 10.73796,17.78967 11.79409,28.94087 0.64056,6.76321 -0.66992,13.45222 -4.6815,23.91956 -1.0946,2.85608 -1.59645,5.58234 -1.11873,6.05837 1.14688,1.1429 5.08165,-3.77566 5.08165,-6.35096 0,-3.28356 2.17572,-3.66025 5.1333,-0.88644 2.15019,2.01651 4.00585,2.59462 8.3303,2.59462 4.72172,0 5.88935,0.43706 7.73221,2.89588 3.12722,4.17258 3.86069,15.54742 1.46727,22.75343 -2.32844,7.01001 -9.36606,15.09138 -15.75271,18.093424 -5.71476,2.686298 -17.28328,13.984289 -22.6975,22.163918 -2.07251,3.131101 -5.959,9.658251 -8.6358,14.504863 -2.67687,4.846694 -7.16727,12.169942 -9.9783,16.273412 -5.53123,8.074383 -10.26869,19.337485 -14.8405,35.2875797 -2.68573,9.36982074 -2.90958,11.8088218 -3.02059,32.7059453 -0.13431,25.243311 -1.44131,31.439067 -8.26577,39.21178 -7.75867,8.836591 -15.50182,28.24152 -16.15287,40.476828 -0.41091,7.72292 -1.60091,15.2505 -3.29168,20.82576 -0.74454,2.45499 0.64273,2.42535 8.9241,-0.18501 24.13343,-7.6076 43.80052,-17.82981 62.78709,-32.637087 10.09582,-7.873547 27.5495,-25.491275 34.86593,-35.197237 19.84437,-26.325257 33.34566,-59.3021472 37.31856,-91.142801 1.91355,-15.335932 0.79997,-47.779092 -2.12131,-61.861967 -7.73864,-37.306588 -24.40981,-68.816598 -50.67457,-95.781248 -16.37467,-16.81106 -31.28087,-27.89198 -50.45944,-37.50793 -29.10111,-14.59104 -54.03918,-20.48704 -86.79265,-20.52026 z m 35.63185,124.87282 -16.36802,2.29337 -10.17622,13.02907 16.37232,-2.29778 z"
       transform="matrix(0.62305364,0,0,0.62305364,53.069866,294.32149)"
       inkscape:label="Path" /></g></svg>
